<?xml version="1.0" encoding="utf-8"?>
<svg version="1.1" xmlns:xlink="http://www.w3.org/1999/xlink" width="12px" height="21px" xmlns="http://www.w3.org/2000/svg">
  <g transform="matrix(1 0 0 1 -559 -3035 )">
    <path d="M 11.6041666666667 9.5771484375  C 11.8680555555556 9.8369140625  12 10.14453125  12 10.5  C 12 10.85546875  11.8680555555556 11.1630859375  11.6041666666667 11.4228515625  L 2.27083333333333 20.6103515625  C 2.00694444444444 20.8701171875  1.69444444444444 21  1.33333333333333 21  C 0.972222222222222 21  0.659722222222222 20.8701171875  0.395833333333333 20.6103515625  C 0.131944444444444 20.3505859375  0 20.04296875  0 19.6875  L 0 1.3125  C 0 0.957031249999997  0.131944444444444 0.649414062499997  0.395833333333333 0.3896484375  C 0.659722222222222 0.129882812499998  0.972222222222222 0  1.33333333333333 0  C 1.69444444444444 0  2.00694444444444 0.129882812499998  2.27083333333333 0.3896484375  L 11.6041666666667 9.5771484375  Z " fill-rule="nonzero" fill="#8c8c8c" stroke="none" transform="matrix(1 0 0 1 559 3035 )" />
  </g>
</svg>