<?xml version="1.0" encoding="utf-8"?>
<svg version="1.1" xmlns:xlink="http://www.w3.org/1999/xlink" width="12px" height="21px" xmlns="http://www.w3.org/2000/svg">
  <g transform="matrix(1 0 0 1 -451 -3035 )">
    <path d="M 11.6041666666667 0.3896484375  C 11.8680555555556 0.649414062499997  12 0.957031249999997  12 1.3125  L 12 19.6875  C 12 20.04296875  11.8680555555556 20.3505859375  11.6041666666667 20.6103515625  C 11.3402777777778 20.8701171875  11.0277777777778 21  10.6666666666667 21  C 10.3055555555556 21  9.99305555555556 20.8701171875  9.72916666666667 20.6103515625  L 0.395833333333333 11.4228515625  C 0.131944444444445 11.1630859375  0 10.85546875  0 10.5  C 0 10.14453125  0.131944444444445 9.8369140625  0.395833333333333 9.5771484375  L 9.72916666666667 0.3896484375  C 9.99305555555556 0.129882812499998  10.3055555555556 0  10.6666666666667 0  C 11.0277777777778 0  11.3402777777778 0.129882812499998  11.6041666666667 0.3896484375  Z " fill-rule="nonzero" fill="#8c8c8c" stroke="none" transform="matrix(1 0 0 1 451 3035 )" />
  </g>
</svg>