<?xml version="1.0" encoding="utf-8"?>
<svg version="1.1" xmlns:xlink="http://www.w3.org/1999/xlink" width="200px" height="80px" xmlns="http://www.w3.org/2000/svg">
  <g transform="matrix(1 0 0 1 -561 -2291 )">
    <path d="M 729.04032522475 2291.5  C 729.04032522475 2291.5  732.734589689794 2292.23885289301  732.734589689794 2292.23885289301  C 732.734589689794 2292.23885289301  760.421123337645 2331  760.421123337645 2331  C 760.421123337645 2331  732.734589689794 2369.76114710699  732.734589689794 2369.76114710699  C 732.734589689794 2369.76114710699  729.04032522475 2370.5  729.04032522475 2370.5  C 729.04032522475 2370.5  561.5 2370.5  561.5 2370.5  C 561.5 2370.5  561.5 2291.5  561.5 2291.5  C 561.5 2291.5  729.04032522475 2291.5  729.04032522475 2291.5  Z " fill-rule="nonzero" fill="#ffffff" stroke="none" />
    <path d="M 729.04032522475 2291.5  C 729.04032522475 2291.5  732.734589689794 2292.23885289301  732.734589689794 2292.23885289301  C 732.734589689794 2292.23885289301  760.421123337645 2331  760.421123337645 2331  C 760.421123337645 2331  732.734589689794 2369.76114710699  732.734589689794 2369.76114710699  C 732.734589689794 2369.76114710699  729.04032522475 2370.5  729.04032522475 2370.5  C 729.04032522475 2370.5  561.5 2370.5  561.5 2370.5  C 561.5 2370.5  561.5 2291.5  561.5 2291.5  C 561.5 2291.5  729.04032522475 2291.5  729.04032522475 2291.5  Z " stroke-width="1" stroke="#8c8c8c" fill="none" />
  </g>
</svg>